<?xml version="1.0" encoding="UTF-8" standalone="no"?>
<!DOCTYPE svg PUBLIC "-//W3C//DTD SVG 1.1//EN" "http://www.w3.org/Graphics/SVG/1.1/DTD/svg11.dtd">
<svg width="100%" height="100%" viewBox="0 0 2000 2000" version="1.1" xmlns="http://www.w3.org/2000/svg" xmlns:xlink="http://www.w3.org/1999/xlink" xml:space="preserve" xmlns:serif="http://www.serif.com/" style="fill-rule:evenodd;clip-rule:evenodd;stroke-linejoin:round;stroke-miterlimit:2;">
    <g id="WordPress-logotype-wmark" transform="matrix(1.25336,0,0,1.25336,541.171,574.671)">
        <g transform="matrix(1,0,0,1,-500,-500)">
            <g id="W-Mark" serif:id="W Mark">
                <g opacity="0">
                    <g transform="matrix(1,0,0,-1,0,1000)">
                        <rect x="0" y="0" width="1000" height="1000" style="fill:white;"/>
                    </g>
                </g>
                <g transform="matrix(1,0,0,1,500,833.334)">
                    <path d="M0,-666.667C-184.095,-666.667 -333.333,-517.429 -333.333,-333.334C-333.333,-149.239 -184.095,0 0,0C184.095,0 333.333,-149.239 333.333,-333.334C333.333,-517.429 184.095,-666.667 0,-666.667M0,-646.667C42.309,-646.667 83.341,-638.385 121.957,-622.052C140.519,-614.201 158.424,-604.482 175.174,-593.167C191.77,-581.955 207.376,-569.078 221.56,-554.894C235.744,-540.71 248.621,-525.103 259.833,-508.508C271.149,-491.758 280.867,-473.853 288.718,-455.291C305.052,-416.675 313.333,-375.642 313.333,-333.334C313.333,-291.025 305.052,-249.993 288.718,-211.377C280.867,-192.815 271.149,-174.91 259.833,-158.16C248.621,-141.564 235.744,-125.958 221.56,-111.774C207.376,-97.59 191.77,-84.713 175.174,-73.501C158.424,-62.185 140.519,-52.467 121.957,-44.616C83.341,-28.282 42.309,-20 0,-20C-42.308,-20 -83.341,-28.282 -121.957,-44.616C-140.519,-52.467 -158.424,-62.185 -175.174,-73.501C-191.769,-84.713 -207.376,-97.59 -221.56,-111.774C-235.744,-125.958 -248.621,-141.564 -259.833,-158.16C-271.148,-174.91 -280.867,-192.815 -288.718,-211.377C-305.051,-249.993 -313.333,-291.025 -313.333,-333.334C-313.333,-375.642 -305.051,-416.675 -288.718,-455.291C-280.867,-473.853 -271.148,-491.758 -259.833,-508.508C-248.621,-525.103 -235.744,-540.71 -221.56,-554.894C-207.376,-569.078 -191.769,-581.955 -175.174,-593.167C-158.424,-604.482 -140.519,-614.201 -121.957,-622.052C-83.341,-638.385 -42.308,-646.667 0,-646.667" style="fill:rgb(50,55,60);fill-rule:nonzero;"/>
                </g>
                <g transform="matrix(1,0,0,1,743.759,633.267)">
                    <path d="M0,-266.535C1.193,-257.689 1.867,-248.198 1.867,-237.974C1.867,-209.797 -3.412,-178.11 -19.262,-138.484L-104.101,106.813C-21.518,58.667 34.019,-30.802 34.019,-133.278C34.019,-181.572 21.677,-226.974 0,-266.535M-238.879,-108.981L-322.235,133.192C-297.341,140.516 -271.023,144.51 -243.759,144.51C-211.412,144.51 -180.38,138.927 -151.51,128.761C-152.253,127.573 -152.938,126.311 -153.503,124.933L-238.879,-108.981ZM-56.236,-147.287C-56.236,-181.627 -68.571,-205.395 -79.135,-223.892C-93.217,-246.784 -106.422,-266.151 -106.422,-289.042C-106.422,-314.572 -87.061,-338.34 -59.775,-338.34C-58.542,-338.34 -57.375,-338.192 -56.178,-338.116C-105.599,-383.398 -171.443,-411.045 -243.759,-411.045C-340.808,-411.045 -426.18,-361.25 -475.85,-285.848C-469.328,-285.641 -463.183,-285.511 -457.973,-285.511C-428.925,-285.511 -383.938,-289.042 -383.938,-289.042C-368.972,-289.919 -367.203,-267.92 -382.162,-266.151C-382.162,-266.151 -397.215,-264.388 -413.951,-263.512L-312.801,37.372L-252.004,-144.938L-295.279,-263.512C-310.245,-264.388 -324.413,-266.151 -324.413,-266.151C-339.387,-267.035 -337.633,-289.919 -322.651,-289.042C-322.651,-289.042 -276.788,-285.511 -249.495,-285.511C-220.447,-285.511 -175.453,-289.042 -175.453,-289.042C-160.479,-289.919 -158.717,-267.92 -173.683,-266.151C-173.683,-266.151 -188.751,-264.388 -205.473,-263.512L-105.087,35.08L-76.431,-55.721C-63.7,-95.404 -56.236,-123.519 -56.236,-147.287M-521.537,-133.278C-521.537,-23.333 -457.647,71.69 -364.977,116.711L-497.484,-246.323C-512.897,-211.78 -521.537,-173.55 -521.537,-133.278" style="fill:rgb(50,55,60);fill-rule:nonzero;"/>
                </g>
            </g>
        </g>
    </g>
    <g id="fav" transform="matrix(0.465863,5.18485e-34,-5.18485e-34,0.465863,1546.39,1373.23)">
        <g transform="matrix(1,0,0,1,-1000,-1000)">
            <g transform="matrix(1.37253,0.430695,-0.430695,1.37253,-142.266,-538.997)">
                <path d="M1039.32,706.365L969.028,729.743L932.578,134.628L1534.79,541.568L1385.74,591.141L1477.07,652.86C1435.15,710.564 1410.42,781.546 1410.42,858.259C1410.42,888.763 1414.33,918.36 1421.68,946.577L1271.43,1056.77L1364.82,1119.88L682.383,1594.2L867.895,784.088L997.086,871.388L875.294,1347.3L1271.43,1056.77L997.086,871.388L1039.32,706.365L1385.74,591.141L1115.53,408.548L1039.32,706.365Z" style="fill:rgb(245,98,98);"/>
            </g>
        </g>
    </g>
    <g transform="matrix(1,0,0,1,-30.6709,240.256)">
        <text x="925.737px" y="1014.12px" style="font-family:'AppleMyungjo Regular', 'AppleMyungjo';font-size:317.567px;fill:rgb(50,55,60);">&amp;</text>
    </g>
</svg>
